<?xml version="1.0" standalone="no"?>
<!DOCTYPE svg PUBLIC "-//W3C//DTD SVG 20010904//EN"
 "http://www.w3.org/TR/2001/REC-SVG-20010904/DTD/svg10.dtd">
<svg version="1.0" xmlns="http://www.w3.org/2000/svg"
 width="100.000000pt" height="100.000000pt" viewBox="0 0 100.000000 100.000000"
 preserveAspectRatio="xMidYMid meet">
<metadata>
Created by potrace 1.14, written by Peter Selinger 2001-2017
</metadata>
<g transform="translate(0.000000,100.000000) scale(0.100000,-0.100000)"
fill="#000000" stroke="none">
<path d="M414 950 c-196 -41 -315 -216 -312 -459 4 -269 150 -438 388 -447
189 -8 335 76 390 223 32 85 30 88 -76 91 l-90 3 -18 -40 c-26 -61 -96 -101
-175 -101 -134 0 -211 91 -217 256 -6 139 37 242 114 281 48 23 154 23 199 0
35 -19 83 -75 83 -99 0 -31 26 -39 112 -36 l83 3 -2 37 c-6 102 -107 225 -220
269 -64 24 -190 34 -259 19z m248 -59 c70 -27 141 -93 168 -157 30 -69 28 -74
-34 -74 -50 0 -54 2 -66 29 -42 103 -184 157 -301 116 -94 -34 -154 -127 -166
-259 -19 -230 95 -380 277 -363 85 7 154 48 186 110 13 25 20 27 70 27 l56 0
-7 -28 c-8 -33 -35 -78 -69 -113 -125 -133 -401 -129 -527 8 -85 92 -123 242
-101 394 32 223 171 345 382 335 45 -2 98 -12 132 -25z"/>
</g>
</svg>
